<svg xmlns="http://www.w3.org/2000/svg" viewBox="0 0 24 24"><path fill="#03A9F4" d="M12.02 2.02A9.98 9.98 0 0 0 2.02 12a9.98 9.98 0 0 0 9.98 9.98a9.98 9.98 0 0 0 9.98-9.98a9.98 9.98 0 0 0-9.96-9.98m-.02 1.55c.7 0 1.38.1 2.03.27l-2.03 3.8l-1.98-3.79c.64-.18 1.31-.28 2.02-.28m-2.6 1.05l2.48 4.74L7.54 13l-4.22-3.15A8.37 8.37 0 0 1 9.4 4.62m5.2 0a8.37 8.37 0 0 1 3.52 2.22l-4.14 3.09l-2.31-4.32l2.93-.99M5.04 6.88l3.65 2.71L6.8 13L2.3 9.71c.62-1.07 1.54-1.98 2.74-2.83M18.96 6.87c1.2.85 2.12 1.77 2.74 2.84l-4.5 3.3l-1.9-3.41l3.66-2.73M1.74 12c0-.4.04-.79.1-1.17l5.3 3.86l-2.19 3.8a8.4 8.4 0 0 1-3.21-6.49m20.52 0a8.4 8.4 0 0 1-3.22 6.5l-2.19-3.8l5.3-3.87c.07.38.11.77.11 1.17m-9.35 1.05l-2.72 4.71h-5.2c1.23 1.8 3.19 3.06 5.43 3.45l2.49-8.16m2.2 0l2.5 8.16c2.24-.38 4.2-1.65 5.43-3.45h-5.22L15.11 13.05Z"/></svg>
